# xmcd CD database file
#
# Track frame offsets:
#	150
#	65793
#	119630
#	146576
#	189012
#
# Disc length: 3112 seconds
#
# Revision: 0
# Processed by: cddbd v1.5.2PL0 Copyright (c) Steve Scherf et al.
# Submitted via: CDex 2.00
#
DISCID=480c2605
DTITLE=Harry Miller's Isipingo - Full Steam Ahead
DYEAR=1976
DGENRE=Jazz
TTITLE0=Whey Hey!
TTITLE1=Good Heavens Evans!
TTITLE2=Family Affair
TTITLE3=Children at Play
TTITLE4=Dancing Damon
EXTD=YEAR: 1976
EXTT0=
EXTT1=
EXTT2=
EXTT3=
EXTT4=
PLAYORDER=
